<?xml version="1.0" encoding="utf-8"?>
<!-- Svg Vector Icons : http://www.onlinewebfonts.com/icon -->
<!DOCTYPE svg PUBLIC "-//W3C//DTD SVG 1.1//EN" "http://www.w3.org/Graphics/SVG/1.1/DTD/svg11.dtd">
<svg version="1.1" xmlns="http://www.w3.org/2000/svg" xmlns:xlink="http://www.w3.org/1999/xlink" x="0px" y="0px" viewBox="0 0 1000 1000" enable-background="new 0 0 1000 1000" xml:space="preserve">
<metadata> Svg Vector Icons : http://www.onlinewebfonts.com/icon </metadata>
<g><path d="M988.8,475.9V283.8c0-247.2-222.7-220.7-222.7-220.7h-519C-2.2,63.2,10.1,294,10.1,294L10,467.7C10,732.9,214.4,715,214.4,715h226.8l253.4,222.7V717h73.6C1019.5,717,988.8,475.9,988.8,475.9z"/><path d="M172.3,386.8c0,45.1,36.6,81.7,81.7,81.7c45.1,0,81.7-36.6,81.7-81.7l0,0c0-45.1-36.6-81.7-81.7-81.7C208.9,305.1,172.3,341.7,172.3,386.8z"/><path d="M423,386.8c0,45.1,36.6,81.7,81.7,81.7c45.1,0,81.7-36.6,81.7-81.7c0-45.1-36.6-81.7-81.7-81.7C459.5,305.1,423,341.7,423,386.8z"/><path d="M673.7,386.8c0,45.1,36.6,81.7,81.7,81.7s81.7-36.6,81.7-81.7l0,0c0-45.1-36.6-81.7-81.7-81.7S673.7,341.7,673.7,386.8z"/></g>
</svg>